:SAMPLES-PER-SECOND 30
:FULLY-SPECIFIED
:DEGREES
84
root  -50.1194 40.552 -19.766 -2.52755 47.9286 0.00978768
RightUpLeg  -17.1858 -13.2381 -4.87811
RightLeg  25.8099 -6.31202 -3.54586
RightFoot  -3.99732 -0.157713 2.02835
RightToes  0.00048216 0.542163 -0.142577
Spine  20.5482 -2.24608 -3.3732
Spine1  6.543 -3.94569 3.77784
HEad  -2.27383 20.0356 -11.8132
LeftShoulder1  10.333 -18.8706 -39.9019
LeftArm  16.475 -47.1078 -46.3304
LeftForeArm  -1.69607 -20.2482 -5.86712
LeftHand  -0.25398 0.0180481 5.50724
RightShoulder  6.37988 13.2151 32.2018
RightArm  -11.8168 -5.66004 29.7147
RightForeArm  -32.8131 72.1381 43.6977
RightHand  -4.4578 9.86235 -33.4252
LeftUpLeg  -0.981821 6.9615 -3.65776
LeftLeg  9.0779 30.5347 -4.51231
LeftFoot  -11.7257 0.0776152 2.16439
LeftToes  1.06246e-005 4.65855e-005 -8.185e-006
85
root  -49.3646 40.497 -19.6887 -2.46192 49.5941 0.683003
RightUpLeg  -18.1756 -14.8443 -2.48445
RightLeg  21.6654 -4.49076 -2.24199
RightFoot  -3.5952 -0.216315 2.83497
RightToes  0.00048216 0.542163 -0.142577
Spine  20.4814 -2.19291 -4.08296
Spine1  6.61618 -4.09642 4.14057
HEad  -1.90364 18.9179 -11.3592
LeftShoulder1  10.3093 -18.911 -39.7221
LeftArm  17.8719 -47.748 -47.198
LeftForeArm  -1.85037 -20.1784 -5.94384
LeftHand  -0.25398 0.0180481 5.50724
RightShoulder  6.30846 13.035 32.1871
RightArm  -12.3675 -6.29515 29.7979
RightForeArm  -32.4053 72.3437 44.3782
RightHand  -4.62381 10.2725 -33.7328
LeftUpLeg  1.10519 5.83009 -4.79313
LeftLeg  7.85087 30.0216 -5.17549
LeftFoot  -12.529 0.0920829 1.61597
LeftToes  1.06246e-005 4.65855e-005 -8.185e-006
86
root  -48.5741 40.3929 -19.5884 -2.00933 51.3352 1.70153
RightUpLeg  -18.9834 -16.3034 -0.473753
RightLeg  16.8109 -2.77691 -0.857937
RightFoot  -3.18398 -0.258081 3.31247
RightToes  0.00048216 0.542163 -0.142577
Spine  20.198 -2.27975 -4.77163
Spine1  6.84253 -4.32497 4.23802
HEad  -1.46587 17.7948 -10.8086
LeftShoulder1  10.3121 -18.9774 -39.6036
LeftArm  18.7218 -48.2632 -47.7186
LeftForeArm  -1.93393 -20.0688 -6.02554
LeftHand  -0.25398 0.0180481 5.50724
RightShoulder  6.25579 12.8405 32.3203
RightArm  -12.669 -6.82816 29.8955
RightForeArm  -31.7805 72.6357 45.3859
RightHand  -5.17926 11.57 -34.819
LeftUpLeg  3.05855 5.06723 -6.18673
LeftLeg  6.92884 29.1369 -5.59356
LeftFoot  -13.3077 0.101963 1.28141
LeftToes  1.06246e-005 4.65855e-005 -8.185e-006
87
root  -47.7416 40.2404 -19.4491 -1.44223 53.0841 2.81119
RightUpLeg  -19.047 -14.1574 -0.130772
RightLeg  11.6475 -5.72853 0.998702
RightFoot  -2.70314 -0.334768 4.18224
RightToes  0.00048216 0.542163 -0.142577
Spine  19.9086 -2.44852 -5.54129
Spine1  7.0478 -4.6569 4.37173
HEad  -1.10005 16.9558 -10.377
LeftShoulder1  10.3512 -19.0261 -39.6737
LeftArm  18.8917 -48.6095 -47.8489
LeftForeArm  -1.74933 -19.9053 -6.10697
LeftHand  -0.25398 0.0180481 5.50724
RightShoulder  6.25932 12.7765 32.4931
RightArm  -12.8611 -7.41223 29.9949
RightForeArm  -30.4113 73.0691 46.9722
RightHand  -5.69315 12.6919 -35.8322
LeftUpLeg  4.85018 4.63229 -7.50779
LeftLeg  6.66167 28.0529 -5.76024
LeftFoot  -14.3555 0.11834 1.21665
LeftToes  1.06246e-005 4.65855e-005 -8.185e-006
88
root  -46.8482 40.0742 -19.2723 -0.823005 54.8718 3.9418
RightUpLeg  -18.2929 -8.82077 -1.32136
RightLeg  5.92626 -13.1829 3.71919
RightFoot  -2.07304 -0.428847 5.11537
RightToes  0.00048216 0.542163 -0.142577
Spine  19.5285 -2.66361 -6.40113
Spine1  7.32329 -5.12764 4.77788
HEad  -0.801275 16.507 -10.1364
LeftShoulder1  10.4014 -19.0384 -39.8614
LeftArm  18.7178 -48.7258 -47.7711
LeftForeArm  -1.55835 -19.7191 -6.19496
LeftHand  -0.25398 0.0180481 5.50724
RightShoulder  6.26307 12.7734 32.5235
RightArm  -13.0272 -8.08415 30.2057
RightForeArm  -28.0166 73.6372 49.2421
RightHand  -5.80255 12.8601 -36.1533
LeftUpLeg  6.69731 4.30099 -8.71506
LeftLeg  6.64865 26.8903 -5.80147
LeftFoot  -15.497 0.140039 1.29568
LeftToes  1.06246e-005 4.65855e-005 -8.185e-006
89
root  -45.8807 39.905 -19.0656 -0.1352 56.5874 5.06968
RightUpLeg  -17.5091 -5.63186 -1.74755
RightLeg  0.454555 -18.5134 6.29255
RightFoot  -1.07271 -0.482895 5.29073
RightToes  0.00048216 0.542163 -0.142577
Spine  18.8772 -2.86689 -7.18811
Spine1  7.78864 -5.60479 5.26687
HEad  -0.324622 16.0039 -9.8024
LeftShoulder1  10.4443 -19.0776 -39.9651
LeftArm  18.423 -48.5751 -47.7286
LeftForeArm  -1.51895 -19.3772 -6.37843
LeftHand  -0.25398 0.0180481 5.50724
RightShoulder  6.16404 12.5175 32.5218
RightArm  -13.0475 -8.62513 30.5593
RightForeArm  -25.0189 74.208 51.7914
RightHand  -5.70389 12.5515 -36.1491
LeftUpLeg  8.70054 3.96641 -9.85493
LeftLeg  6.59267 25.6318 -5.79094
LeftFoot  -16.4709 0.158976 1.34341
LeftToes  1.06246e-005 4.65855e-005 -8.185e-006
90
root  -44.8332 39.7063 -18.8324 0.278375 57.9577 5.92462
RightUpLeg  -16.9592 -5.34162 -1.04595
RightLeg  -2.3191 -19.5887 7.57674
RightFoot  -0.154622 -0.567901 5.77995
RightToes  0.00048216 0.542163 -0.142577
Spine  18.2292 -3.00279 -7.67456
Spine1  8.18938 -5.90607 5.56074
HEad  0.442767 14.9927 -9.15901
LeftShoulder1  10.4842 -19.1444 -40.0019
LeftArm  17.9216 -48.0891 -47.6452
LeftForeArm  -1.56823 -18.9396 -6.61886
LeftHand  -0.25398 0.0180481 5.50724
RightShoulder  5.99006 11.9985 32.6909
RightArm  -12.7747 -9.00319 30.8826
RightForeArm  -21.8905 74.6968 54.2449
RightHand  -5.73602 12.544 -36.3505
LeftUpLeg  10.7839 3.86388 -10.7081
LeftLeg  6.85601 24.3048 -5.75697
LeftFoot  -17.562 0.177055 1.31991
LeftToes  1.06246e-005 4.65855e-005 -8.185e-006
91
root  -43.7114 39.4796 -18.5818 0.0270006 59.0747 6.13909
RightUpLeg  -16.5284 -5.0294 -0.238607
RightLeg  -1.23403 -18.9249 7.53969
RightFoot  -0.0439154 -0.717049 7.2321
RightToes  0.00048216 0.542163 -0.142577
Spine  17.944 -3.17608 -7.72924
Spine1  8.29097 -6.15909 5.76394
HEad  1.14772 14.2459 -8.64063
LeftShoulder1  10.5168 -19.1358 -40.1554
LeftArm  17.3803 -47.1937 -47.2548
LeftForeArm  -1.93008 -18.9406 -6.61627
LeftHand  -0.25398 0.0180481 5.50724
RightShoulder  5.90862 11.7008 32.9121
RightArm  -12.3125 -9.65717 30.9684
RightForeArm  -18.0878 75.2348 57.3394
RightHand  -5.83986 12.7226 -36.6223
LeftUpLeg  12.8055 4.39594 -10.8957
LeftLeg  7.85601 22.6635 -5.68224
LeftFoot  -18.9355 0.201661 1.32405
LeftToes  1.06246e-005 4.65855e-005 -8.185e-006
